HIERARCHY
ROOT Hip
{
  OFFSET 0.000000 0.000000 0.000000
  CHANNELS 6 Xposition Yposition Zposition Zrotation Xrotation Yrotation
  JOINT RHip
  {
    OFFSET 0.064921 -0.023015 -0.001082
    CHANNELS 3 Zrotation Xrotation Yrotation
    JOINT RKnee
    {
      OFFSET -0.062390 0.288414 0.164011
      CHANNELS 3 Zrotation Xrotation Yrotation
      JOINT RFoot
      {
        OFFSET 0.089756 0.372667 0.037989
        CHANNELS 3 Zrotation Xrotation Yrotation
        End Site
        {
          OFFSET 0.000000 0.050000 0.000000
        }
      }
    }
  }
  JOINT LHip
  {
    OFFSET -0.064902 0.022956 0.000953
    CHANNELS 3 Zrotation Xrotation Yrotation
    JOINT LKnee
    {
      OFFSET -0.046411 0.238577 0.162305
      CHANNELS 3 Zrotation Xrotation Yrotation
      JOINT LFoot
      {
        OFFSET 0.209622 0.279344 -0.070860
        CHANNELS 3 Zrotation Xrotation Yrotation
        End Site
        {
          OFFSET 0.000000 0.050000 0.000000
        }
      }
    }
  }
  JOINT Spine
  {
    OFFSET -0.018268 -0.216847 -0.048592
    CHANNELS 3 Zrotation Xrotation Yrotation
    JOINT Thorax
    {
      OFFSET -0.077321 -0.124820 -0.017578
      CHANNELS 3 Zrotation Xrotation Yrotation
      JOINT Nose
      {
        OFFSET 0.108781 -0.098240 0.013594
        CHANNELS 3 Zrotation Xrotation Yrotation
        JOINT Head
        {
          OFFSET 0.029032 -0.081794 0.006190
          CHANNELS 3 Zrotation Xrotation Yrotation
          End Site
          {
            OFFSET 0.000000 0.050000 0.000000
          }
        }
      }
      JOINT LShoulder
      {
        OFFSET -0.029724 -0.013171 0.028411
        CHANNELS 3 Zrotation Xrotation Yrotation
        JOINT LElbow
        {
          OFFSET 0.061485 0.078702 0.051903
          CHANNELS 3 Zrotation Xrotation Yrotation
          JOINT LWrist
          {
            OFFSET 0.016730 -0.077027 0.034760
            CHANNELS 3 Zrotation Xrotation Yrotation
            End Site
            {
              OFFSET 0.000000 0.050000 0.000000
            }
          }
        }
      }
      JOINT RShoulder
      {
        OFFSET 0.074330 0.000007 -0.027179
        CHANNELS 3 Zrotation Xrotation Yrotation
        JOINT RElbow
        {
          OFFSET 0.140935 0.068181 -0.036074
          CHANNELS 3 Zrotation Xrotation Yrotation
          JOINT RWrist
          {
            OFFSET -0.115197 -0.176532 0.045917
            CHANNELS 3 Zrotation Xrotation Yrotation
            End Site
            {
              OFFSET 0.000000 0.050000 0.000000
            }
          }
        }
      }
    }
  }
}
MOTION
Frames: 12
Frame Time: 0.033333
0.000002 0.727165 0.000063 0.000000 0.000000 0.000000 -107.188886 31.244615 41.533128 9.010369 23.862611 -1.907682 -11.986879 9.189906 0.966885 46.579523 -23.547256 10.253727 8.150775 22.612853 -1.632280 -37.396623 -25.278805 -8.680470 -0.293783 -158.013179 -1.512224 49.176535 -109.063488 65.422606 -168.689697 -1.804203 -18.070291 -143.499994 -8.999486 -26.845877 44.405895 103.354817 -54.622927 -34.071542 10.533717 3.235934 9.652331 -146.688043 31.519719 -112.154220 7.284831 10.814020 -40.544199 -4.640041 -1.714645 65.103181 37.922015 -24.739534
0.000001 0.727167 0.000072 0.000000 0.000000 0.000000 -99.856478 -31.348818 -36.893604 -2.252063 21.387062 0.425321 -7.303873 0.401039 0.025596 54.327901 24.903583 -12.928819 -4.995316 22.984080 1.016203 -10.263653 -16.355712 -1.478841 -15.520900 -154.093909 -61.294115 9.967664 -144.049354 30.088928 -174.322513 -1.187708 -23.613344 -120.490039 -25.389099 -43.013180 25.110334 78.419629 -20.596290 2.855703 33.523963 -0.860282 -91.469846 -66.235385 -67.587578 -125.612531 -13.951372 -26.789722 -20.152974 -39.919069 -7.385129 4.042765 8.193139 -0.289665
0.000001 0.727167 0.000060 0.000000 0.000000 0.000000 -100.204507 20.832565 24.801013 -10.358163 15.713357 1.433163 -9.419245 8.791629 0.725705 66.334752 -19.547543 12.846946 2.473868 17.551624 -0.381964 -9.050514 -17.969847 -1.433927 -5.072739 -156.662333 -24.211816 4.648101 -149.093526 16.703694 -1.990385 -175.045705 -43.754818 -120.597672 8.398791 14.669708 37.278124 -0.944115 0.318453 25.633944 -22.572111 5.199184 155.733431 4.636111 -21.326486 -85.816946 54.353496 51.024531 -27.081243 5.763421 1.389101 132.283739 12.202982 -27.175599
0.000002 0.727166 0.000080 0.000000 0.000000 0.000000 74.724671 62.202585 -49.462174 -10.266607 14.243716 1.286140 -8.300200 13.683081 0.997563 -40.149757 -36.503078 -13.744118 12.654391 6.701017 -0.743856 -16.205780 -16.071598 -2.302966 -19.082584 -148.120317 -60.954339 16.013048 -134.918312 37.442259 -7.748494 -162.160355 -46.678892 -106.560696 -13.363683 -17.851761 -45.655688 -11.095885 -4.682671 15.269873 0.668374 -0.089596 102.416692 -53.795849 64.513812 27.205197 100.024741 -32.185620 -3.793816 36.474467 1.250483 87.666974 -74.337572 72.103435
0.000002 0.727168 0.000058 0.000000 0.000000 0.000000 53.924199 68.626426 -38.291795 -16.970844 9.419525 1.408410 -6.213073 7.808967 0.424467 -43.011193 -52.128052 -21.816982 9.705163 18.206366 -1.558701 -12.010748 -2.295962 -0.241565 -3.398489 -162.981805 -22.430856 7.976195 -146.550709 26.125252 1.014608 -164.364341 7.379692 -118.950035 9.992806 16.867714 -60.941363 -14.475120 -8.546232 -0.361313 14.703926 0.046618 22.931925 -123.603300 41.444209 31.459361 106.931967 -41.628702 -0.761951 2.431500 0.016170 170.875421 1.263675 -15.737340
0.000002 0.727171 0.000044 0.000000 0.000000 0.000000 85.626012 67.192659 -63.219139 -12.773693 12.859471 1.445428 -9.306609 9.373848 0.764675 -26.929983 -24.897190 -6.051175 8.031548 20.199346 -1.432862 -11.480126 -0.323333 -0.032501 -0.123848 -165.849140 -0.997775 -24.991679 -144.840963 -69.945383 0.672123 -168.893985 6.904928 -128.248861 6.784706 13.934996 -47.175908 -8.482662 -3.709345 7.323424 27.921425 -1.822930 26.635058 -110.559740 37.720387 30.601677 129.710118 -60.471581 -7.646588 -15.319651 -1.029901 58.668551 79.712619 -50.266722
0.000002 0.727172 0.000036 0.000000 0.000000 0.000000 101.413263 29.749219 -35.965042 -10.250938 16.031493 1.447334 -6.117386 7.766122 0.415618 -54.489576 -24.422592 -12.717117 7.975894 19.040879 -1.339735 -18.535381 -10.571668 -1.729836 -2.648982 -166.680902 -22.402148 -3.168950 -166.138868 -25.640180 -61.692601 -103.527354 -74.319607 -154.327356 0.402633 1.766878 -77.880552 7.914339 6.398786 -18.814152 11.529554 1.916461 34.741201 -109.006308 47.364998 86.687234 60.253689 -57.417906 -4.453244 -41.484556 -1.687225 10.429043 92.442784 -10.880766
0.000002 0.727172 0.000035 0.000000 0.000000 0.000000 105.311893 24.804522 -32.154748 -9.427348 8.820813 0.728752 -3.637906 3.486790 0.110765 -56.517851 -21.348245 -11.570257 6.880205 18.572515 -1.126300 -22.256780 -16.463568 -3.260084 1.019952 -167.791284 9.515383 57.293334 -104.508279 70.415803 -48.820666 -112.141454 -68.010087 -11.605629 148.697069 39.873941 -73.368587 11.022569 8.222546 -25.983450 -1.385189 -0.319600 129.175538 -23.725639 47.703518 12.768931 118.608323 -21.347911 -13.634580 -22.201949 -2.687443 -46.724301 33.844072 14.973732
0.000002 0.727168 0.000015 0.000000 0.000000 0.000000 -48.179512 79.191644 40.591232 -8.076500 22.140082 1.582682 0.104712 -4.532874 0.004144 36.570185 -51.816168 18.237050 13.984678 32.691513 -4.120240 -24.896454 -16.354753 -3.633756 -2.170366 -168.631163 -21.549205 120.460577 -45.333850 72.267797 -154.732576 -11.767728 -49.383306 -142.145952 -17.969415 -49.508303 1.332013 -19.790129 0.232365 -40.932725 -12.712719 -4.761405 129.193398 19.386059 -39.563989 -85.743067 35.908257 33.483816 -26.338580 -14.771885 -3.474570 -11.006411 64.442299 6.949660
0.000002 0.727164 0.000026 0.000000 0.000000 0.000000 -20.967428 105.478947 27.343755 -19.422412 30.031001 5.256630 0.000000 0.000000 0.000000 18.893130 -60.819123 11.154982 11.983014 38.679598 -4.219228 -22.892137 -19.062193 -3.894065 -8.065044 -162.636430 -49.563937 172.035448 0.824153 -11.796919 -126.937183 -40.794699 -73.356044 -135.489687 25.999312 58.859615 -2.172457 -58.382669 -1.213814 -34.826480 -16.752912 -5.288296 109.109295 23.606087 -32.719394 -38.782914 83.243484 34.733992 -20.193623 -10.920512 -1.950332 45.092578 31.236387 -13.239918
0.000002 0.727163 0.000002 0.000000 0.000000 0.000000 4.246864 113.272728 -6.445758 -12.000567 20.619320 2.190711 -8.429378 8.958646 0.661532 -4.235760 -66.096917 -2.756555 19.220533 18.516076 -3.161943 -17.787309 -11.841581 -1.859459 -1.587466 -173.689030 -28.212908 140.369491 -33.344964 79.464940 -26.637913 -141.258001 -67.908344 -76.995287 86.316410 73.431889 -30.136319 -56.748957 -16.547266 -29.596664 -10.323767 -2.734219 114.709417 -31.540714 47.578486 -19.966406 88.898230 19.593546 -3.389647 -1.279634 -0.037865 69.449911 30.729332 -21.565209
0.000002 0.727162 0.000025 0.000000 0.000000 0.000000 -13.517908 111.705420 19.823243 -10.006056 23.571230 2.092842 -5.684635 1.985113 0.098568 12.813412 -61.943025 7.710959 26.299737 23.273671 -5.509080 -18.466662 -12.709402 -2.074349 -81.503977 -87.268900 -78.812305 170.365614 -4.263897 47.665097 1.834506 -166.605099 15.527994 -120.497768 -13.995267 -24.239867 -0.605242 -65.119048 -0.386468 15.006041 7.245356 -0.955509 2.543432 -162.622450 16.530316 -22.159635 94.706304 24.005907 10.106969 -10.661934 0.945537 53.485615 -12.727214 6.432775
